<?xml version="1.0" encoding="utf-8"?>
<!-- Generator: Adobe Illustrator 16.0.0, SVG Export Plug-In . SVG Version: 6.00 Build 0)  -->
<!DOCTYPE svg PUBLIC "-//W3C//DTD SVG 1.1//EN" "http://www.w3.org/Graphics/SVG/1.1/DTD/svg11.dtd">
<svg version="1.1" id="Layer_1" xmlns="http://www.w3.org/2000/svg" xmlns:xlink="http://www.w3.org/1999/xlink" x="0px" y="0px"
	 width="231.333px" height="76px" viewBox="0 0 231.333 76" enable-background="new 0 0 231.333 76" xml:space="preserve">
<path fill="none" stroke="#000000" stroke-width="10" stroke-miterlimit="10" d="M9.833-226.988"/>
<g>
	<path d="M87.118,35.895V16.466h11.119v2.577h-8.054v5.374h5.604v2.59h-5.604v6.131h8.541v2.757H87.118z"/>
	<path d="M100.956,35.895V16.466h6.631c2.41,0,4.099,0.692,5.065,2.077c0.556,0.804,0.833,1.782,0.833,2.937
		c0,2.053-0.624,3.643-1.872,4.771c-0.915,0.812-2.12,1.218-3.616,1.218h-3.976v8.426H100.956z M110.421,21.596
		c0-1.702-1.428-2.553-4.283-2.553h-2.116v5.835h2.116c1.316,0,2.359-0.284,3.129-0.853S110.421,22.646,110.421,21.596z"/>
	<path d="M115.409,35.895V16.466h3.065v19.429H115.409z"/>
	<path d="M119.77,35.895l5.54-19.429h3.36l5.54,19.429h-2.962l-1.604-5.63h-5.091l-1.604,5.63H119.77z M125.284,27.687h3.63
		l-1.809-6.271L125.284,27.687z"/>
	<path d="M135.812,35.895V16.466h6.528c3.001,0,4.898,1.072,5.693,3.219c0.231,0.624,0.347,1.27,0.347,1.937
		s-0.075,1.273-0.225,1.821c-0.149,0.547-0.37,1.056-0.66,1.525c-0.642,1.026-1.586,1.672-2.834,1.937l3.591,8.99h-3.143
		l-3.36-8.426h-2.872v8.426H135.812z M138.878,24.878h3.244c0.898,0,1.646-0.243,2.244-0.73c0.633-0.521,0.949-1.321,0.949-2.398
		c0-1.804-1.432-2.706-4.296-2.706h-2.142V24.878z"/>
	<path d="M149.624,28.585c-0.137-0.804-0.205-1.616-0.205-2.437c0-0.821,0.064-1.629,0.192-2.424
		c0.129-0.796,0.318-1.571,0.571-2.328c0.252-0.757,0.581-1.453,0.987-2.091c0.406-0.637,0.87-1.194,1.392-1.673
		c1.111-1.018,2.492-1.526,4.142-1.526c2.095,0,3.749,1.047,4.964,3.142c0.59,1.018,0.987,2.065,1.192,3.143v0.013l-2.668,0.718
		c-0.137-0.914-0.299-1.584-0.487-2.007c-0.188-0.423-0.376-0.777-0.563-1.064c-0.188-0.286-0.394-0.523-0.616-0.712
		c-0.53-0.436-1.131-0.653-1.802-0.653s-1.246,0.151-1.725,0.455c-0.479,0.304-0.872,0.701-1.18,1.192
		c-0.308,0.492-0.564,1.066-0.77,1.725c-0.377,1.215-0.564,2.582-0.564,4.104c0,4.035,0.957,6.446,2.873,7.232
		c0.41,0.171,0.846,0.257,1.308,0.257s0.874-0.06,1.237-0.18c0.363-0.119,0.669-0.275,0.917-0.468s0.469-0.421,0.661-0.687
		c0.192-0.265,0.346-0.532,0.461-0.802c0.116-0.269,0.207-0.545,0.276-0.827c0.128-0.495,0.192-0.957,0.192-1.385l2.859,0.397
		c-0.385,1.642-1.056,3.065-2.014,4.271c-1.214,1.505-2.74,2.257-4.578,2.257c-2.257,0-4.074-1.072-5.45-3.219
		C150.449,31.804,149.915,30.329,149.624,28.585z"/>
</g>
<g>
	<path d="M87.272,61.269V41.84h10.528v1.59H89.17v6.836h6.194v1.59H89.17v9.413H87.272z"/>
	<path d="M100.821,57.146c-0.39-0.851-0.674-1.739-0.854-2.668c-0.179-0.927-0.269-1.883-0.269-2.866
		c0-0.982,0.081-1.94,0.243-2.872s0.428-1.834,0.795-2.706c0.368-0.872,0.823-1.631,1.366-2.276s1.225-1.163,2.045-1.552
		c0.821-0.389,1.726-0.584,2.713-0.584s1.877,0.199,2.667,0.597c0.791,0.397,1.449,0.924,1.976,1.577
		c0.525,0.654,0.968,1.417,1.327,2.289c0.675,1.642,1.013,3.488,1.013,5.541c0,3.753-0.97,6.54-2.911,8.361
		c-1.051,0.991-2.397,1.487-4.039,1.487c-0.949,0-1.826-0.19-2.629-0.57c-0.804-0.381-1.481-0.89-2.033-1.526
		C101.681,58.74,101.21,57.996,100.821,57.146z M102.321,46.777c-0.261,0.727-0.446,1.489-0.558,2.289
		c-0.111,0.799-0.167,1.708-0.167,2.725c0,1.018,0.101,2.007,0.302,2.969c0.2,0.962,0.504,1.832,0.91,2.61s0.958,1.392,1.654,1.84
		c0.697,0.449,1.467,0.674,2.309,0.674s1.564-0.169,2.167-0.507c0.604-0.338,1.088-0.776,1.456-1.314
		c0.367-0.539,0.671-1.18,0.91-1.924c0.428-1.316,0.642-2.821,0.642-4.514c0-2.813-0.518-4.993-1.552-6.541
		c-0.368-0.556-0.851-1.007-1.449-1.353c-0.599-0.347-1.282-0.52-2.052-0.52s-1.46,0.153-2.071,0.462
		c-0.611,0.308-1.116,0.72-1.514,1.237S102.582,46.051,102.321,46.777z"/>
	<path d="M116.602,55.434V41.84h1.897v13.594c0,1.163,0.282,2.142,0.847,2.937c0.71,1.009,1.821,1.514,3.335,1.514
		c2.257,0,3.595-1.018,4.014-3.053c0.103-0.47,0.154-0.936,0.154-1.397V41.84h1.936v13.594c0,1.402-0.38,2.654-1.141,3.758
		c-1.026,1.521-2.681,2.282-4.963,2.282c-2.728,0-4.562-1.086-5.502-3.257C116.794,57.311,116.602,56.383,116.602,55.434z"/>
	<path d="M132.068,61.269V41.84h3.026l7.836,14.799V41.84h1.897v19.429H143.2l-9.234-17.544v17.544H132.068z"/>
	<path d="M148.201,61.269V41.84h4.63c4.291,0,6.916,1.906,7.874,5.72c0.308,1.23,0.462,2.487,0.462,3.771
		c0,1.282-0.09,2.376-0.27,3.282s-0.477,1.772-0.892,2.598s-0.935,1.532-1.558,2.122c-1.377,1.291-3.249,1.937-5.617,1.937H148.201z
		 M150.099,59.679h2.732c2.795,0,4.693-1.193,5.693-3.578c0.496-1.197,0.744-2.659,0.744-4.387c0-3.068-0.59-5.258-1.77-6.565
		c-0.462-0.505-1.088-0.917-1.879-1.237c-0.791-0.321-1.721-0.481-2.789-0.481h-2.732V59.679z"/>
	<path d="M162.359,61.269l5.54-19.429h2.771l5.54,19.429h-1.975l-1.667-6.13h-6.528l-1.705,6.13H162.359z M166.477,53.548h5.643
		l-2.834-10.093L166.477,53.548z"/>
	<path d="M176.851,43.43v-1.59h12.979v1.59h-5.54v17.839h-1.898V43.43H176.851z"/>
	<path d="M191.882,61.269V41.84h1.897v19.429H191.882z"/>
	<path d="M197.659,57.146c-0.39-0.851-0.674-1.739-0.854-2.668c-0.179-0.927-0.269-1.883-0.269-2.866
		c0-0.982,0.081-1.94,0.243-2.872s0.428-1.834,0.795-2.706c0.368-0.872,0.823-1.631,1.366-2.276s1.225-1.163,2.045-1.552
		c0.821-0.389,1.726-0.584,2.713-0.584s1.877,0.199,2.667,0.597c0.791,0.397,1.449,0.924,1.976,1.577
		c0.525,0.654,0.968,1.417,1.327,2.289c0.675,1.642,1.013,3.488,1.013,5.541c0,3.753-0.97,6.54-2.911,8.361
		c-1.051,0.991-2.397,1.487-4.039,1.487c-0.949,0-1.826-0.19-2.629-0.57c-0.804-0.381-1.481-0.89-2.033-1.526
		C198.519,58.74,198.048,57.996,197.659,57.146z M199.159,46.777c-0.261,0.727-0.446,1.489-0.558,2.289
		c-0.111,0.799-0.167,1.708-0.167,2.725c0,1.018,0.101,2.007,0.302,2.969c0.2,0.962,0.504,1.832,0.91,2.61s0.958,1.392,1.654,1.84
		c0.697,0.449,1.467,0.674,2.309,0.674s1.564-0.169,2.167-0.507c0.604-0.338,1.088-0.776,1.456-1.314
		c0.367-0.539,0.671-1.18,0.91-1.924c0.428-1.316,0.642-2.821,0.642-4.514c0-2.813-0.518-4.993-1.552-6.541
		c-0.368-0.556-0.851-1.007-1.449-1.353c-0.599-0.347-1.282-0.52-2.052-0.52s-1.46,0.153-2.071,0.462
		c-0.611,0.308-1.116,0.72-1.514,1.237S199.42,46.051,199.159,46.777z"/>
	<path d="M213.35,61.269V41.84h3.026l7.836,14.799V41.84h1.897v19.429h-1.628l-9.234-17.544v17.544H213.35z"/>
</g>
<g>
	<line fill="none" stroke="#000000" stroke-width="4.2205" stroke-miterlimit="10" x1="7.408" y1="38.5" x2="73.061" y2="38.5"/>
	<circle fill="#FFFFFF" stroke="#000000" stroke-width="1.7482" stroke-miterlimit="10" cx="40.526" cy="38.5" r="3.083"/>
	<g>
		<path fill="none" stroke="#000000" stroke-width="4.6709" stroke-miterlimit="10" d="M7.408,37.564
			c0,17.945,15.547,32.468,34.761,32.468"/>
		<path fill="none" stroke="#000000" stroke-width="4.5776" stroke-miterlimit="10" d="M7.408,37.564
			c0,11.82,15.931,21.386,35.618,21.386"/>
		<path fill="none" stroke="#000000" stroke-width="4.2205" stroke-miterlimit="10" d="M43.026,48.102
			c-15.644,0-35.618-5.384-35.618-10.537"/>
		<circle fill="#FFFFFF" stroke="#000000" stroke-width="1.7482" stroke-miterlimit="10" cx="40.526" cy="70.032" r="3.084"/>
		<circle fill="#FFFFFF" stroke="#000000" stroke-width="1.7482" stroke-miterlimit="10" cx="40.526" cy="58.95" r="3.084"/>
		<circle fill="#FFFFFF" stroke="#000000" stroke-width="1.7482" stroke-miterlimit="10" cx="40.526" cy="48.102" r="3.084"/>
		<circle fill="#FFFFFF" stroke="#000000" stroke-width="1.7482" stroke-miterlimit="10" cx="7.991" cy="38.5" r="3.083"/>
	</g>
	<g>
		<path fill="none" stroke="#000000" stroke-width="4.6709" stroke-miterlimit="10" d="M73.643,37.563
			c0,17.946-15.547,32.469-34.761,32.469"/>
		<path fill="none" stroke="#000000" stroke-width="4.5776" stroke-miterlimit="10" d="M73.643,37.563
			c0,11.82-15.931,21.387-35.618,21.387"/>
		<path fill="none" stroke="#000000" stroke-width="4.2205" stroke-miterlimit="10" d="M38.025,48.101
			c15.643,0,35.618-5.383,35.618-10.537"/>
		<circle fill="#FFFFFF" stroke="#000000" stroke-width="1.7482" stroke-miterlimit="10" cx="40.526" cy="70.032" r="3.084"/>
		<circle fill="#FFFFFF" stroke="#000000" stroke-width="1.7482" stroke-miterlimit="10" cx="40.526" cy="58.95" r="3.084"/>
		<circle fill="#FFFFFF" stroke="#000000" stroke-width="1.7482" stroke-miterlimit="10" cx="40.526" cy="48.101" r="3.084"/>
		<circle fill="#FFFFFF" stroke="#000000" stroke-width="1.7482" stroke-miterlimit="10" cx="73.061" cy="38.5" r="3.084"/>
	</g>
	<g>
		<path fill="none" stroke="#000000" stroke-width="4.6709" stroke-miterlimit="10" d="M7.408,39.436
			c0-17.945,15.547-32.468,34.761-32.468"/>
		<path fill="none" stroke="#000000" stroke-width="4.5776" stroke-miterlimit="10" d="M7.408,39.436
			c0-11.82,15.931-21.386,35.618-21.386"/>
		<path fill="none" stroke="#000000" stroke-width="4.2205" stroke-miterlimit="10" d="M43.026,28.898
			c-15.644,0-35.618,5.384-35.618,10.537"/>
		<circle fill="#FFFFFF" stroke="#000000" stroke-width="1.7482" stroke-miterlimit="10" cx="40.526" cy="6.968" r="3.084"/>
		<circle fill="#FFFFFF" stroke="#000000" stroke-width="1.7482" stroke-miterlimit="10" cx="40.526" cy="18.05" r="3.084"/>
		<circle fill="#FFFFFF" stroke="#000000" stroke-width="1.7482" stroke-miterlimit="10" cx="40.526" cy="28.898" r="3.084"/>
		<circle fill="#FFFFFF" stroke="#000000" stroke-width="1.7482" stroke-miterlimit="10" cx="7.991" cy="38.5" r="3.083"/>
	</g>
	<g>
		<path fill="none" stroke="#000000" stroke-width="4.6709" stroke-miterlimit="10" d="M73.643,39.436
			c0-17.945-15.547-32.468-34.761-32.468"/>
		<path fill="none" stroke="#000000" stroke-width="4.5776" stroke-miterlimit="10" d="M73.643,39.436
			c0-11.82-15.931-21.386-35.618-21.386"/>
		<path fill="none" stroke="#000000" stroke-width="4.2205" stroke-miterlimit="10" d="M38.025,28.898
			c15.643,0,35.618,5.384,35.618,10.537"/>
		<circle fill="#FFFFFF" stroke="#000000" stroke-width="1.7482" stroke-miterlimit="10" cx="40.526" cy="6.968" r="3.084"/>
		<circle fill="#FFFFFF" stroke="#000000" stroke-width="1.7482" stroke-miterlimit="10" cx="40.526" cy="18.05" r="3.084"/>
		<circle fill="#FFFFFF" stroke="#000000" stroke-width="1.7482" stroke-miterlimit="10" cx="40.526" cy="28.898" r="3.084"/>
		<circle fill="#FFFFFF" stroke="#000000" stroke-width="1.7482" stroke-miterlimit="10" cx="73.061" cy="38.5" r="3.084"/>
	</g>
</g>
</svg>
